<svg width="361" height="156" viewBox="0 0 361 156" fill="none" xmlns="http://www.w3.org/2000/svg">
<ellipse cx="84" cy="77" rx="84" ry="77" fill="#F28383"/>
<path d="M176.695 119.547V130.234H102.727V122.57L148.57 51.625H159.188L147.797 72.1562L117.492 119.547H176.695ZM162.422 51.625V154H149.414V51.625H162.422ZM252.773 94.6562V110.266C252.773 118.656 252.023 125.734 250.523 131.5C249.023 137.266 246.867 141.906 244.055 145.422C241.242 148.938 237.844 151.492 233.859 153.086C229.922 154.633 225.469 155.406 220.5 155.406C216.562 155.406 212.93 154.914 209.602 153.93C206.273 152.945 203.273 151.375 200.602 149.219C197.977 147.016 195.727 144.156 193.852 140.641C191.977 137.125 190.547 132.859 189.562 127.844C188.578 122.828 188.086 116.969 188.086 110.266V94.6562C188.086 86.2656 188.836 79.2344 190.336 73.5625C191.883 67.8906 194.062 63.3438 196.875 59.9219C199.688 56.4531 203.062 53.9687 207 52.4688C210.984 50.9688 215.438 50.2188 220.359 50.2188C224.344 50.2188 228 50.7109 231.328 51.6953C234.703 52.6328 237.703 54.1562 240.328 56.2656C242.953 58.3281 245.18 61.0938 247.008 64.5625C248.883 67.9844 250.312 72.1797 251.297 77.1484C252.281 82.1172 252.773 87.9531 252.773 94.6562ZM239.695 112.375V92.4766C239.695 87.8828 239.414 83.8516 238.852 80.3828C238.336 76.8672 237.562 73.8672 236.531 71.3828C235.5 68.8984 234.188 66.8828 232.594 65.3359C231.047 63.7891 229.242 62.6641 227.18 61.9609C225.164 61.2109 222.891 60.8359 220.359 60.8359C217.266 60.8359 214.523 61.4219 212.133 62.5938C209.742 63.7188 207.727 65.5234 206.086 68.0078C204.492 70.4922 203.273 73.75 202.43 77.7812C201.586 81.8125 201.164 86.7109 201.164 92.4766V112.375C201.164 116.969 201.422 121.023 201.938 124.539C202.5 128.055 203.32 131.102 204.398 133.68C205.477 136.211 206.789 138.297 208.336 139.938C209.883 141.578 211.664 142.797 213.68 143.594C215.742 144.344 218.016 144.719 220.5 144.719C223.688 144.719 226.477 144.109 228.867 142.891C231.258 141.672 233.25 139.773 234.844 137.195C236.484 134.57 237.703 131.219 238.5 127.141C239.297 123.016 239.695 118.094 239.695 112.375ZM338.695 119.547V130.234H264.727V122.57L310.57 51.625H321.188L309.797 72.1562L279.492 119.547H338.695ZM324.422 51.625V154H311.414V51.625H324.422Z" fill="black"/>
</svg>
